fd_5_states
version=1
nRows=47
nColumns=17
inDegrees=yes

# SIMM Motion File Header:
name fd_5_states
datacolumns 17
datarows 47
otherdata 1
range 0.773888 0.835461
endheader
time	/jointset/r_shoulder/r_shoulder_elev/value	/jointset/r_shoulder/r_shoulder_elev/speed	/jointset/r_elbow/r_elbow_flex/value	/jointset/r_elbow/r_elbow_flex/speed	/forceset/TRIlong/activation	/forceset/TRIlong/fiber_length	/forceset/TRIlat/activation	/forceset/TRIlat/fiber_length	/forceset/TRImed/activation	/forceset/TRImed/fiber_length	/forceset/BIClong/activation	/forceset/BIClong/fiber_length	/forceset/BICshort/activation	/forceset/BICshort/fiber_length	/forceset/BRA/activation	/forceset/BRA/fiber_length
      0.773888	    -10.426279	    -20.732452	    240.943166	    161.947472	      0.029783	      0.160552	      0.248267	      0.100363	      0.241533	      0.095421	      0.105460	      0.102680	      0.028609	      0.100893	      0.027664	      0.050484
      0.775008	    -10.448742	    -19.396481	    241.124123	    161.316224	      0.029635	      0.160485	      0.245538	      0.100315	      0.238783	      0.095373	      0.104697	      0.102853	      0.028479	      0.101055	      0.027549	      0.050555
      0.776127	    -10.469714	    -18.068238	    241.304381	    160.698193	      0.029489	      0.160419	      0.242887	      0.100267	      0.236112	      0.095324	      0.103949	      0.103025	      0.028352	      0.101217	      0.027436	      0.050622
      0.777717	    -10.496936	    -16.194500	    241.559064	    159.833203	      0.029287	      0.160328	      0.239252	      0.100199	      0.232449	      0.095256	      0.102913	      0.103266	      0.028174	      0.101445	      0.027277	      0.050721
      0.779010	    -10.516897	    -14.680779	    241.765290	    159.145580	      0.029125	      0.160254	      0.236401	      0.100143	      0.229574	      0.095201	      0.102091	      0.103460	      0.028032	      0.101629	      0.027151	      0.050798
      0.780303	    -10.534906	    -13.175649	    241.970633	    158.465047	      0.028966	      0.160182	      0.233522	      0.100088	      0.226703	      0.095145	      0.101270	      0.103653	      0.027892	      0.101812	      0.027027	      0.050878
      0.781596	    -10.550975	    -11.680942	    242.175106	    157.801197	      0.028810	      0.160112	      0.229839	      0.100033	      0.223260	      0.095090	      0.100330	      0.103845	      0.027755	      0.101993	      0.026906	      0.050955
      0.782889	    -10.565118	    -10.196272	    242.378727	    157.147475	      0.028656	      0.160042	      0.226217	      0.099979	      0.219882	      0.095036	      0.099402	      0.104037	      0.027620	      0.102172	      0.026786	      0.051035
      0.784182	    -10.577349	     -8.722995	    242.581514	    156.510653	      0.028506	      0.159974	      0.222713	      0.099926	      0.216614	      0.094982	      0.098495	      0.104227	      0.027488	      0.102350	      0.026669	      0.051111
      0.785475	    -10.587681	     -7.259669	    242.783483	    155.881841	      0.028358	      0.159907	      0.219325	      0.099873	      0.213451	      0.094928	      0.097608	      0.104415	      0.027358	      0.102527	      0.026553	      0.051191
      0.787048	    -10.597710	     -5.494088	    243.028127	    155.136285	      0.028181	      0.159828	      0.215348	      0.099808	      0.209736	      0.094862	      0.096557	      0.104642	      0.027204	      0.102740	      0.026416	      0.051282
      0.788224	    -10.603398	     -4.183704	    243.210172	    154.583087	      0.028052	      0.159769	      0.212478	      0.099760	      0.207053	      0.094814	      0.095790	      0.104810	      0.027090	      0.102898	      0.026315	      0.051356
      0.789399	    -10.607551	     -2.882535	    243.391573	    154.043065	      0.027925	      0.159712	      0.209691	      0.099712	      0.204446	      0.094765	      0.095039	      0.104976	      0.026978	      0.103054	      0.026215	      0.051424
      0.790837	    -10.610558	     -1.301359	    243.612645	    153.389465	      0.027772	      0.159643	      0.206382	      0.099654	      0.201296	      0.094705	      0.094107	      0.105179	      0.026844	      0.103244	      0.026096	      0.051512
      0.792247	    -10.611308	      0.234528	    243.828402	    152.767801	      0.027625	      0.159577	      0.203224	      0.099597	      0.198105	      0.094647	      0.093096	      0.105376	      0.026715	      0.103429	      0.025981	      0.051593
      0.793656	    -10.609903	      1.757039	    244.043294	    152.160082	      0.027481	      0.159512	      0.200171	      0.099539	      0.195011	      0.094589	      0.092105	      0.105573	      0.026588	      0.103612	      0.025869	      0.051680
      0.794906	    -10.606872	      3.093240	    244.233080	    151.645206	      0.027356	      0.159456	      0.197550	      0.099489	      0.192355	      0.094538	      0.091246	      0.105745	      0.026478	      0.103773	      0.025771	      0.051751
      0.796155	    -10.602178	      4.418727	    244.422231	    151.141605	      0.027232	      0.159401	      0.195006	      0.099438	      0.189777	      0.094487	      0.090407	      0.105917	      0.026370	      0.103933	      0.025675	      0.051826
      0.797680	    -10.594216	      6.019916	    244.652248	    150.554256	      0.027085	      0.159335	      0.192001	      0.099376	      0.186730	      0.094424	      0.089407	      0.106124	      0.026240	      0.104127	      0.025559	      0.051914
      0.799000	    -10.585362	      7.392941	    244.850668	    150.061305	      0.026960	      0.159280	      0.189484	      0.099322	      0.184179	      0.094370	      0.088562	      0.106302	      0.026130	      0.104293	      0.025461	      0.051995
      0.800320	    -10.574704	      8.751900	    245.048453	    149.593725	      0.026837	      0.159225	      0.186982	      0.099268	      0.181652	      0.094316	      0.087723	      0.106478	      0.026022	      0.104458	      0.025365	      0.052069
      0.801500	    -10.563672	      9.955336	    245.224628	    149.188880	      0.026729	      0.159178	      0.184251	      0.099220	      0.178981	      0.094268	      0.086867	      0.106635	      0.025927	      0.104604	      0.025281	      0.052140
      0.802679	    -10.551228	     11.146814	    245.400338	    148.804826	      0.026622	      0.159131	      0.181538	      0.099173	      0.176335	      0.094220	      0.086015	      0.106792	      0.025834	      0.104750	      0.025198	      0.052208
      0.804474	    -10.529610	     12.937932	    245.666921	    148.253358	      0.026464	      0.159061	      0.177553	      0.099101	      0.172446	      0.094148	      0.084752	      0.107030	      0.025694	      0.104969	      0.025074	      0.052315
      0.805819	    -10.511306	     14.262512	    245.866170	    147.870075	      0.026348	      0.159010	      0.174673	      0.099048	      0.169634	      0.094094	      0.083831	      0.107206	      0.025592	      0.105133	      0.024983	      0.052391
      0.807165	    -10.491229	     15.572891	    246.064916	    147.504172	      0.026233	      0.158961	      0.171881	      0.098994	      0.166908	      0.094040	      0.082931	      0.107381	      0.025492	      0.105295	      0.024894	      0.052471
      0.808511	    -10.469399	     16.867725	    246.263186	    147.163502	      0.026121	      0.158912	      0.169174	      0.098941	      0.164264	      0.093986	      0.082051	      0.107555	      0.025393	      0.105456	      0.024806	      0.052548
      0.809857	    -10.445836	     18.148572	    246.461010	    146.839560	      0.026011	      0.158864	      0.166549	      0.098888	      0.161699	      0.093932	      0.081191	      0.107727	      0.025297	      0.105616	      0.024720	      0.052628
      0.811202	    -10.420560	     19.414042	    246.658413	    146.540113	      0.025903	      0.158818	      0.163796	      0.098834	      0.158967	      0.093879	      0.080277	      0.107898	      0.025202	      0.105775	      0.024635	      0.052704
      0.812548	    -10.393590	     20.664577	    246.855427	    146.260262	      0.025797	      0.158772	      0.160940	      0.098781	      0.156099	      0.093825	      0.079317	      0.108070	      0.025108	      0.105932	      0.024552	      0.052784
      0.813894	    -10.364949	     21.898311	    247.052082	    146.008321	      0.025693	      0.158728	      0.158171	      0.098729	      0.153317	      0.093772	      0.078378	      0.108240	      0.025017	      0.106089	      0.024471	      0.052860
      0.815240	    -10.334658	     23.116406	    247.248413	    145.777417	      0.025591	      0.158684	      0.155485	      0.098676	      0.150618	      0.093718	      0.077461	      0.108410	      0.024927	      0.106245	      0.024391	      0.052940
      0.816875	    -10.295652	     24.574349	    247.486646	    145.533532	      0.025469	      0.158633	      0.152326	      0.098612	      0.147444	      0.093654	      0.076374	      0.108615	      0.024820	      0.106434	      0.024296	      0.053032
      0.818069	    -10.265701	     25.624120	    247.660210	    145.371692	      0.025382	      0.158596	      0.150093	      0.098565	      0.145199	      0.093607	      0.075600	      0.108763	      0.024743	      0.106570	      0.024228	      0.053104
      0.819262	    -10.234504	     26.660620	    247.833594	    145.232239	      0.025296	      0.158560	      0.147918	      0.098518	      0.143012	      0.093560	      0.074842	      0.108910	      0.024668	      0.106706	      0.024160	      0.053171
      0.820769	    -10.193332	     27.953181	    248.052435	    145.077682	      0.025196	      0.158515	      0.145162	      0.098459	      0.140261	      0.093500	      0.073875	      0.109095	      0.024574	      0.106877	      0.024077	      0.053260
      0.822277	    -10.150227	     29.224397	    248.271067	    144.957695	      0.025131	      0.158472	      0.142012	      0.098400	      0.137214	      0.093440	      0.072764	      0.109281	      0.024483	      0.107047	      0.023996	      0.053345
      0.823595	    -10.110993	     30.318136	    248.462038	    144.876524	      0.025076	      0.158435	      0.139326	      0.098348	      0.134619	      0.093388	      0.071811	      0.109443	      0.024404	      0.107195	      0.023926	      0.053424
      0.824913	    -10.070328	     31.393281	    248.652923	    144.828624	      0.025022	      0.158398	      0.136717	      0.098297	      0.132097	      0.093337	      0.070878	      0.109605	      0.024327	      0.107342	      0.023857	      0.053498
      0.826231	    -10.028259	     32.451992	    248.843761	    144.802318	      0.024969	      0.158362	      0.134181	      0.098246	      0.129646	      0.093285	      0.069966	      0.109766	      0.024251	      0.107488	      0.023790	      0.053577
      0.827548	     -9.984805	     33.492676	    249.034582	    144.806197	      0.024916	      0.158328	      0.131717	      0.098195	      0.127262	      0.093233	      0.069075	      0.109926	      0.024177	      0.107634	      0.023723	      0.053651
      0.828866	     -9.939991	     34.516946	    249.225425	    144.831898	      0.024865	      0.158293	      0.129321	      0.098144	      0.124944	      0.093181	      0.068202	      0.110086	      0.024104	      0.107779	      0.023658	      0.053729
      0.830184	     -9.893839	     35.523761	    249.416318	    144.885468	      0.024814	      0.158260	      0.126989	      0.098093	      0.122688	      0.093129	      0.067346	      0.110244	      0.024032	      0.107924	      0.023594	      0.053805
      0.831502	     -9.846371	     36.514209	    249.607297	    144.961062	      0.024737	      0.158227	      0.124654	      0.098041	      0.120459	      0.093077	      0.066439	      0.110402	      0.023961	      0.108068	      0.023531	      0.053883
      0.833128	     -9.786003	     37.711514	    249.843177	    145.096579	      0.024635	      0.158188	      0.121835	      0.097978	      0.117780	      0.093012	      0.065322	      0.110598	      0.023876	      0.108246	      0.023455	      0.053975
      0.834295	     -9.741530	     38.554292	    250.012462	    145.214974	      0.024563	      0.158160	      0.119871	      0.097932	      0.115912	      0.092966	      0.064540	      0.110738	      0.023816	      0.108373	      0.023402	      0.054046
      0.835461	     -9.696082	     39.382281	    250.181901	    145.359810	      0.024492	      0.158133	      0.117954	      0.097886	      0.114089	      0.092919	      0.063772	      0.110877	      0.023757	      0.108499	      0.023349	      0.054113
